<svg width="25" height="7" viewBox="0 0 25 7" fill="none" xmlns="http://www.w3.org/2000/svg">
<path d="M5.75 3.3999C5.75 4.76157 4.59418 5.8999 3.125 5.8999C1.65582 5.8999 0.5 4.76157 0.5 3.3999C0.5 2.03823 1.65582 0.899902 3.125 0.899902C4.59418 0.899902 5.75 2.03823 5.75 3.3999Z" stroke="#C4C4C4"/>
<path d="M24.5 3.3999C24.5 4.76157 23.3442 5.8999 21.875 5.8999C20.4058 5.8999 19.25 4.76157 19.25 3.3999C19.25 2.03823 20.4058 0.899902 21.875 0.899902C23.3442 0.899902 24.5 2.03823 24.5 3.3999Z" stroke="#C4C4C4"/>
<path d="M15.125 3.3999C15.125 4.76157 13.9692 5.8999 12.5 5.8999C11.0308 5.8999 9.875 4.76157 9.875 3.3999C9.875 2.03823 11.0308 0.899902 12.5 0.899902C13.9692 0.899902 15.125 2.03823 15.125 3.3999Z" stroke="#C4C4C4"/>
</svg>
