<svg width="163" height="69" viewBox="0 0 163 69" fill="none" xmlns="http://www.w3.org/2000/svg">
<g clip-path="url(#clip0)">
<path d="M86.7458 31.9568C93.5744 31.9568 93.9015 31.7661 100.735 31.7661C100.718 31.138 101.672 30.5921 102.539 30.5994C103.27 30.6068 104.146 31.1497 104.168 31.7881L104.076 38.3917C104.076 39.1254 103.155 39.5539 102.442 39.5539C101.848 39.5539 100.972 39.0593 101.006 38.2948C94.1009 38.2875 93.6511 38.1979 86.7458 38.1906" fill="#025F33"/>
<path d="M87.4053 34.7949V32.5937H99.9874C100.157 32.5937 100.32 32.6518 100.44 32.7553C100.56 32.8588 100.628 32.9991 100.628 33.1455V34.5851C100.643 34.694 100.707 34.7935 100.806 34.8627C100.905 34.9319 101.031 34.9655 101.158 34.9563C101.287 34.963 101.415 34.9291 101.517 34.8608C101.62 34.7925 101.69 34.6946 101.715 34.5851V31.9157C101.715 31.9157 102.02 31.3845 102.466 31.3845C102.913 31.3845 103.238 31.744 103.238 31.744L103.276 38.1246C103.276 38.7732 102.717 38.7732 102.555 38.7732C102.393 38.7732 101.759 38.7732 101.759 38.1319C101.689 37.6403 101.345 37.7357 101.165 37.7064L87.4053 37.4393V34.7949Z" fill="#76B157"/>
<path d="M54.4463 47.0527C61.7332 47.0527 69.0286 46.8487 76.3155 46.8487C76.2984 46.1796 77.3156 45.597 78.2407 45.6043C79.021 45.6117 79.9564 46.1913 79.9802 46.8722L79.8814 53.916C79.8814 54.7055 78.8966 55.156 78.1385 55.156C77.503 55.156 76.5676 54.6292 76.6051 53.8133C69.2364 53.806 61.8167 53.7106 54.4463 53.7032" fill="#025F33"/>
<path d="M55.3408 50.0814V47.7335H75.5267C75.7075 47.7335 75.8808 47.7953 76.0086 47.9054C76.1364 48.0155 76.2082 48.1648 76.2082 48.3205V49.8569C76.2249 49.9732 76.293 50.0794 76.3984 50.1535C76.5038 50.2276 76.6382 50.2638 76.7738 50.2546C76.9116 50.2614 77.0475 50.2251 77.1565 50.1522C77.2655 50.0794 77.3402 49.975 77.3667 49.8584V47.0071C77.3667 47.0071 77.6939 46.4436 78.1709 46.4436C78.648 46.4436 78.9955 46.8295 78.9955 46.8295L79.0347 53.6371C79.0347 54.3297 78.4384 54.3297 78.2663 54.3297C78.0942 54.3297 77.4144 54.3297 77.4144 53.6444C77.3395 53.1205 76.9732 53.2233 76.7807 53.191L55.3408 52.9004V50.0814Z" fill="#76B157"/>
<path d="M54.4463 13.6062C61.7332 13.6062 69.0286 13.4022 76.3155 13.4022C76.2984 12.733 77.3156 12.1504 78.2407 12.1578C79.021 12.1578 79.9564 12.7448 79.9802 13.4271L79.8814 20.4709C79.8814 21.259 78.8966 21.711 78.1385 21.711C77.503 21.711 76.5676 21.1827 76.6051 20.3668C69.2364 20.3668 61.8167 20.264 54.4463 20.2567" fill="#025F33"/>
<path d="M55.3408 16.6352V14.2872H75.5267C75.7075 14.2872 75.8808 14.3491 76.0086 14.4591C76.1364 14.5692 76.2082 14.7185 76.2082 14.8742V16.4121C76.2249 16.5283 76.2931 16.6343 76.3985 16.7082C76.5039 16.782 76.6384 16.8179 76.7738 16.8083C76.9116 16.8151 77.0475 16.7788 77.1565 16.7059C77.2655 16.6331 77.3402 16.5287 77.3668 16.4121V13.5608C77.3668 13.5608 77.6922 12.9944 78.1692 12.9944C78.6462 12.9944 78.9938 13.3789 78.9938 13.3789L79.033 20.1879C79.033 20.879 78.4367 20.879 78.2646 20.879C78.0925 20.879 77.4127 20.879 77.4127 20.1937C77.3378 19.6699 76.9715 19.7726 76.779 19.7403L55.3408 19.4571V16.6352Z" fill="#76B157"/>
<path d="M61.5799 33.9819C61.5799 40.2583 61.8167 46.5419 61.8167 52.8183C62.5936 52.8036 63.27 53.6797 63.2598 54.4765C63.2598 55.1486 62.5783 55.9542 61.7878 55.9748L53.6098 55.8897C52.6949 55.8897 52.1702 55.0415 52.1702 54.3885C52.1702 53.8411 52.7818 53.0355 53.7291 53.0677C53.7376 46.721 53.85 40.3302 53.8586 33.9819" fill="#025F33"/>
<path d="M58.0634 34.7524H60.7894V52.1389C60.7894 52.2946 60.7176 52.4439 60.5898 52.554C60.462 52.664 60.2887 52.7259 60.1079 52.7259H58.3224C58.1876 52.7403 58.0644 52.799 57.9786 52.8898C57.8929 52.9806 57.8513 53.0964 57.8624 53.2131C57.8545 53.3317 57.8967 53.4488 57.9813 53.5427C58.0658 53.6366 58.187 53.7009 58.3224 53.7238H61.6311C61.6311 53.7238 62.2904 54.004 62.2904 54.4149C62.2904 54.8258 61.844 55.1252 61.844 55.1252L53.9387 55.1589C53.1345 55.1589 53.1345 54.6453 53.1345 54.4971C53.1345 54.3489 53.1345 53.7634 53.9302 53.7634C54.5401 53.6988 54.4208 53.3833 54.4583 53.2175L54.7854 34.7495L58.0634 34.7524Z" fill="url(#paint0_linear)"/>
<path d="M61.8339 35.5918C62.6245 35.5727 63.2974 34.7949 63.306 34.1463C63.3162 33.3774 62.6381 32.5321 61.8612 32.5468V15.062C62.8834 14.9607 63.2906 14.0216 63.306 13.2805C63.3196 12.6216 62.3859 11.6428 61.563 11.6428H54.1347C52.5707 11.6428 52.0476 12.6451 52.051 13.2805C52.051 13.9717 52.2691 14.9828 54.1347 14.9828C54.1262 21.1094 53.7786 26.6608 53.7701 32.7875C52.8228 32.7566 52.2112 33.5329 52.2112 34.0612C52.2112 34.6922 52.7342 35.5125 53.6509 35.5111L61.8339 35.5918Z" fill="#025F33"/>
<path d="M57.7601 14.6877C57.7601 14.5219 57.8913 14.2842 58.0804 14.2842H61.5083C61.6553 14.2848 61.7977 14.2406 61.9104 14.1594C62.1302 13.9965 62.4607 13.6898 62.4607 13.3054C62.4607 12.9209 62.12 12.6523 61.9019 12.5247C61.7977 12.4655 61.6757 12.4338 61.5509 12.4337H54.4634C54.4634 12.4337 52.9556 12.3897 52.9556 13.3054C52.9556 14.3854 54.5537 14.3076 54.7956 14.2871C54.8 14.2869 54.8044 14.2875 54.8085 14.2888C54.8126 14.2901 54.8164 14.2921 54.8196 14.2947C54.8228 14.2973 54.8253 14.3005 54.8271 14.304C54.8288 14.3074 54.8297 14.3112 54.8297 14.315L54.5026 32.8739C54.5026 32.8945 54.5026 32.9136 54.5026 32.9326C54.4821 33.0985 54.5554 33.3729 53.9812 33.4316C53.189 33.4316 53.1856 33.9907 53.1856 34.1389C53.1856 34.2871 53.1856 34.7787 53.9897 34.7787L61.6395 34.7464L62.1132 34.5557C62.252 34.4172 62.3324 34.2424 62.3415 34.0596C62.3415 33.7955 62.0484 33.5871 61.8542 33.4727C61.7525 33.4166 61.6342 33.387 61.5134 33.3876H58.37C58.2373 33.3668 58.1177 33.3055 58.0332 33.2149C57.9487 33.1244 57.905 33.0106 57.91 32.8945C57.9037 32.8163 57.9216 32.7382 57.9621 32.668C58.0025 32.5978 58.0639 32.5382 58.14 32.4953L58.4535 32.4234H60.2288C60.3076 32.4246 60.3858 32.4124 60.4591 32.3875C60.5324 32.3626 60.5993 32.3255 60.6559 32.2784C60.7126 32.2312 60.7578 32.1749 60.7892 32.1127C60.8206 32.0505 60.8374 31.9835 60.8388 31.9157V15.5755C60.8374 15.5077 60.8206 15.4407 60.7892 15.3785C60.7578 15.3163 60.7126 15.26 60.6559 15.2128C60.5993 15.1657 60.5324 15.1286 60.4591 15.1037C60.3858 15.0788 60.3076 15.0666 60.2288 15.0678H58.1111C57.9049 15.0678 57.7601 14.8711 57.7601 14.6877Z" fill="url(#paint1_linear)"/>
<path d="M91.5351 34.4675C91.5351 40.3476 91.7583 46.2366 91.7583 52.1182C92.4858 52.1035 93.1213 52.9253 93.1111 53.6722C93.1111 54.3017 92.4722 55.056 91.731 55.0751L84.0642 54.9958C83.2123 54.9958 82.7166 54.2019 82.7166 53.5885C82.7166 53.0764 83.289 52.3221 84.1767 52.3515C84.1852 46.4039 84.2891 40.4151 84.2976 34.4675" fill="#025F33"/>
<path d="M88.2399 35.1897H90.7955V51.4785C90.7955 51.6249 90.728 51.7652 90.6079 51.8687C90.4878 51.9722 90.3248 52.0303 90.1549 52.0303H88.4836C88.3571 52.0436 88.2416 52.0985 88.1612 52.1836C88.0808 52.2687 88.0419 52.3773 88.0525 52.4867C88.0451 52.598 88.0846 52.7078 88.1638 52.796C88.2431 52.8842 88.3566 52.9448 88.4836 52.9665H91.5844C91.5844 52.9665 92.2028 53.2292 92.2028 53.6137C92.2028 53.9982 91.7837 54.2784 91.7837 54.2784L84.3759 54.3107C83.6228 54.3107 83.6228 53.8294 83.6228 53.69C83.6228 53.5506 83.6228 53.0047 84.369 53.0047C84.9381 52.9445 84.8273 52.6481 84.8631 52.4925L85.1698 35.1882L88.2399 35.1897Z" fill="url(#paint2_linear)"/>
<path d="M91.7735 35.9763C92.5147 35.9572 93.1467 35.2029 93.1536 34.5734C93.1536 33.8264 92.5283 33.0047 91.8008 33.0193V16.0452C92.7668 15.9469 93.1382 15.0356 93.1536 14.3151C93.1655 13.6767 92.2898 12.7258 91.5197 12.7258H84.5599C83.0947 12.7258 82.604 13.6988 82.6057 14.3151C82.6057 14.9872 82.8102 15.9675 84.5599 15.9675C84.5599 21.9165 84.2192 27.305 84.2192 33.2527C83.3315 33.2233 82.759 33.9776 82.759 34.4897C82.759 35.1031 83.2497 35.8985 84.1067 35.897L91.7735 35.9763Z" fill="#025F33"/>
<path d="M87.9622 15.7223C87.9622 15.5609 88.0849 15.3305 88.2604 15.3305H91.4736C91.6127 15.3311 91.7473 15.2877 91.8518 15.2087C92.0563 15.0516 92.363 14.7538 92.363 14.3795C92.3523 14.2266 92.299 14.078 92.2077 13.9465C92.1164 13.815 91.9896 13.7043 91.8382 13.6238C91.7414 13.5665 91.6268 13.5358 91.5094 13.5358H84.8648C84.8648 13.5358 83.4507 13.4917 83.4507 14.3795C83.4507 15.4288 84.9483 15.3539 85.1749 15.3334C85.179 15.3332 85.1832 15.3337 85.1871 15.335C85.191 15.3362 85.1946 15.3381 85.1977 15.3406C85.2007 15.3431 85.2031 15.346 85.2048 15.3494C85.2064 15.3527 85.2072 15.3562 85.2072 15.3598L84.9006 33.367C84.9006 33.3861 84.9006 33.4037 84.9006 33.4228C84.8818 33.5842 84.95 33.8498 84.4116 33.907C83.6705 33.907 83.6671 34.45 83.6671 34.5924C83.6671 34.7347 83.6671 35.2131 84.4201 35.2131L91.5878 35.1823L92.0324 34.9974C92.1625 34.8613 92.2373 34.6922 92.2454 34.516C92.2454 34.2607 91.9728 34.0582 91.7888 33.9511C91.695 33.8972 91.5847 33.8686 91.4719 33.8689H88.5278C88.4011 33.8468 88.2877 33.7862 88.2086 33.6981C88.1294 33.61 88.0897 33.5003 88.0968 33.389C88.0905 33.3142 88.107 33.2392 88.1447 33.1715C88.1823 33.1038 88.2398 33.0458 88.3115 33.0031L88.6062 32.9327H90.2691C90.3443 32.9328 90.4188 32.9202 90.4884 32.8955C90.5579 32.8708 90.6212 32.8345 90.6744 32.7887C90.7276 32.7428 90.7697 32.6884 90.7984 32.6285C90.8271 32.5686 90.8417 32.5044 90.8415 32.4396V16.591C90.8417 16.5262 90.8271 16.462 90.7984 16.4021C90.7697 16.3422 90.7276 16.2878 90.6744 16.2419C90.6212 16.1961 90.5579 16.1598 90.4884 16.1351C90.4188 16.1104 90.3443 16.0978 90.2691 16.0979H88.2859C88.0866 16.0906 87.9622 15.8998 87.9622 15.7223Z" fill="url(#paint3_linear)"/>
<path d="M106.938 34.4473C106.938 40.3289 107.16 46.2163 107.16 52.0979C107.889 52.0832 108.523 52.905 108.514 53.6519C108.514 54.2815 107.875 55.0357 107.134 55.0548L99.4675 54.9756C98.6157 54.9756 98.1182 54.1817 98.1182 53.5683C98.1182 53.0561 98.6923 52.3019 99.58 52.3312C99.58 46.3836 99.6924 40.3949 99.7009 34.4473" fill="#025F33"/>
<path d="M103.643 35.1692H106.199V51.458C106.199 51.6044 106.132 51.7447 106.011 51.8482C105.891 51.9517 105.728 52.0098 105.558 52.0098H103.887C103.761 52.0231 103.645 52.078 103.565 52.1631C103.484 52.2482 103.445 52.3568 103.456 52.4662C103.448 52.5772 103.488 52.6868 103.566 52.7748C103.645 52.8628 103.759 52.9231 103.885 52.9446H106.988C106.988 52.9446 107.605 53.2072 107.605 53.5917C107.605 53.9762 107.186 54.2579 107.186 54.2579L99.7794 54.2902C99.0264 54.2902 99.0264 53.8074 99.0264 53.6695C99.0264 53.5315 99.0264 52.9827 99.7709 52.9827C100.342 52.9225 100.231 52.6261 100.265 52.4706L100.573 35.1663L103.643 35.1692Z" fill="url(#paint4_linear)"/>
<path d="M107.177 35.9763C107.917 35.9572 108.549 35.2029 108.557 34.5734C108.566 33.8264 107.932 33.0047 107.203 33.0193V16.0452C108.169 15.9469 108.542 15.0356 108.557 14.3151C108.569 13.6767 107.693 12.7258 106.923 12.7258H99.9635C98.4983 12.7258 98.0059 13.6988 98.0093 14.3151C98.0093 14.9872 98.2137 15.9675 99.9635 15.9675C99.955 21.9165 99.6227 27.305 99.6227 33.2527C98.7351 33.2233 98.1609 33.9776 98.1609 34.4897C98.1609 35.1031 98.6533 35.8985 99.5103 35.897L107.177 35.9763Z" fill="#025F33"/>
<path d="M103.364 15.7223C103.364 15.5609 103.487 15.3305 103.664 15.3305H106.877C107.016 15.331 107.15 15.2876 107.254 15.2087C107.46 15.0516 107.765 14.7538 107.765 14.3795C107.754 14.2267 107.702 14.0782 107.61 13.9466C107.519 13.8151 107.393 13.7044 107.242 13.6238C107.145 13.5665 107.03 13.5358 106.913 13.5358H100.268C100.268 13.5358 98.856 13.4917 98.856 14.3795C98.856 15.4288 100.352 15.3539 100.58 15.3334C100.584 15.3329 100.589 15.3333 100.593 15.3344C100.596 15.3356 100.6 15.3375 100.603 15.3401C100.606 15.3426 100.608 15.3457 100.61 15.3492C100.611 15.3526 100.611 15.3562 100.611 15.3598L100.304 33.367C100.306 33.3856 100.306 33.4042 100.304 33.4228C100.285 33.5842 100.354 33.8498 99.8152 33.907C99.074 33.907 99.0706 34.45 99.0706 34.5924C99.0706 34.7347 99.0706 35.2131 99.8237 35.2131L106.991 35.1823L107.436 34.9974C107.566 34.8613 107.641 34.6922 107.649 34.516C107.649 34.2607 107.375 34.0582 107.192 33.9511C107.098 33.897 106.987 33.8683 106.874 33.8689H103.931C103.805 33.8468 103.691 33.7862 103.612 33.6981C103.533 33.61 103.493 33.5003 103.5 33.389C103.494 33.3141 103.51 33.2391 103.548 33.1713C103.585 33.1036 103.643 33.0456 103.715 33.0031L104.01 32.9327H105.673C105.824 32.9327 105.97 32.8807 106.077 32.7882C106.185 32.6958 106.245 32.5704 106.245 32.4396V16.591C106.245 16.5263 106.23 16.4621 106.201 16.4023C106.173 16.3425 106.131 16.2881 106.077 16.2424C106.024 16.1966 105.961 16.1603 105.892 16.1355C105.822 16.1107 105.748 16.0979 105.673 16.0979H103.689C103.497 16.0906 103.364 15.8998 103.364 15.7223Z" fill="url(#paint5_linear)"/>
<path d="M9.55797 22.5051H11.0061C13.3232 22.5051 14.6266 23.6277 14.6266 25.6234V27.807L19.6219 27.3081C19.3323 26.8092 19.2608 26.1238 19.4056 25.3754L20.6357 17.8283H6.00908C3.692 17.8283 2.38864 16.7057 2.38864 14.7099V13.4626C2.38864 11.4668 3.692 10.3442 6.00908 10.3442H26.5817C29.0436 10.3442 30.347 11.5916 29.9892 13.649L28.0333 25.8113L27.8885 26.498L28.6126 26.4349C30.9978 26.1855 32.4511 27.3154 32.4511 29.3699V30.6172C32.4511 32.5499 31.3641 33.6108 29.0436 33.8603L3.83682 36.2875C1.45159 36.5369 0 35.407 0 33.3526V32.1052C0 30.1711 1.15854 29.1116 3.40748 28.8621L5.94264 28.6127V25.619C5.93752 23.6277 7.24088 22.5051 9.55797 22.5051ZM23.5286 37.2237C35.4769 37.2237 43.7315 39.8431 43.7315 46.8283C43.7315 53.6886 35.5536 56.3667 23.5286 56.3667C11.7268 56.3667 3.61704 53.6857 3.61704 46.8283C3.62044 40.2804 11.0061 37.2237 23.532 37.2237H23.5286ZM23.5286 49.5093C30.3351 49.5093 34.3184 48.9487 34.3184 46.8283C34.3184 44.583 30.3351 44.0841 23.5286 44.0841C16.9403 44.0841 13.0302 44.6447 13.0302 46.8283C13.0336 48.9487 16.9437 49.5093 23.532 49.5093H23.5286ZM34.8244 13.4611C34.8244 11.4654 36.1278 10.3428 38.4448 10.3428H39.893C42.2101 10.3428 43.5135 11.4654 43.5135 13.4611V18.5752H45.1797C47.4968 18.5752 48.8002 19.6978 48.8002 21.6936V22.9409C48.8002 24.9367 47.4968 26.0593 45.1797 26.0593H43.5169V34.5412C43.5169 36.4753 42.2135 37.5979 39.8964 37.5979H38.4482C36.1312 37.5979 34.8278 36.4753 34.8278 34.5412L34.8244 13.4611Z" fill="#76B157"/>
<path d="M142.249 35.1649V37.733H160.018V44.0959H151.841V48.1534H160.606V54.5736H113.864V48.1593H122.63V44.0959H114.452V37.7271H132.222V35.1591H111.479V28.5408H163V35.1664L142.249 35.1649ZM137.061 20.323C134.118 22.3775 130.55 23.9868 126.356 25.151C122.025 26.3352 117.514 26.9583 112.97 27V20.0648C116.198 19.9733 119.393 19.4714 122.451 18.5753C125.471 17.686 128.005 16.4533 130.053 14.8773C132.101 13.3012 133.383 11.5036 133.9 9.48438L144.097 10.9738C143.757 12.3363 143.195 13.6505 142.427 14.8773L162.284 20.5784L159.064 27.0499L137.061 20.323ZM142.001 44.1032H132.461V48.1608H142.001V44.1032Z" fill="#76B157"/>
<path d="M143.322 11.6399C143.322 11.6399 141.93 3.54685 157.183 0C156.72 12.1403 143.322 11.6399 143.322 11.6399Z" fill="url(#paint6_linear)"/>
<path d="M143.743 11.2393C143.743 11.2393 149.137 3.37224 156.35 0.673584L143.743 11.2393Z" fill="url(#paint7_linear)"/>
<path d="M152.515 4.6665C152.515 4.6665 153.832 5.42224 154.824 5.2124" stroke="#77C06D" stroke-width="2" stroke-miterlimit="10"/>
<path d="M151.52 5.55566C151.52 5.55566 152.856 6.28939 153.842 6.06047" stroke="#77C06D" stroke-width="2" stroke-miterlimit="10"/>
<path d="M153.42 3.9519C153.42 3.9519 154.856 4.52568 155.805 4.18817" stroke="#77C06D" stroke-width="2" stroke-miterlimit="10"/>
<path d="M34.1123 66.6418H29.9893V65.9609H31.1614V65.1684H32.1155V65.9609H34.1123V66.6418ZM33.8056 65.7495H32.8652V64.5756H30.2346V63.8947H33.8124L33.8056 65.7495ZM31.9315 68.9897C31.7477 68.9913 31.5648 68.9675 31.3897 68.9193C31.2328 68.8762 31.087 68.8075 30.9604 68.7167C30.839 68.6278 30.7423 68.5164 30.6776 68.391C30.6101 68.2535 30.5753 68.1058 30.5753 67.9566C30.5753 67.8074 30.6101 67.6597 30.6776 67.5222C30.7423 67.3968 30.839 67.2854 30.9604 67.1965C31.087 67.1057 31.2328 67.037 31.3897 66.9939C31.5648 66.9457 31.7477 66.9219 31.9315 66.9235H34.1259C34.3097 66.9219 34.4927 66.9457 34.6677 66.9939C34.8247 67.037 34.9705 67.1057 35.0971 67.1965C35.2185 67.2854 35.3152 67.3968 35.3799 67.5222C35.4474 67.6597 35.4821 67.8074 35.4821 67.9566C35.4821 68.1058 35.4474 68.2535 35.3799 68.391C35.3152 68.5164 35.2185 68.6278 35.0971 68.7167C34.9705 68.8075 34.8247 68.8762 34.6677 68.9193C34.4927 68.9675 34.3097 68.9913 34.1259 68.9897H31.9315ZM34.0237 68.2971C34.1591 68.304 34.2934 68.272 34.4053 68.2061C34.4479 68.1756 34.4821 68.1375 34.5056 68.0944C34.5291 68.0513 34.5413 68.0042 34.5413 67.9566C34.5413 67.909 34.5291 67.8619 34.5056 67.8188C34.4821 67.7757 34.4479 67.7376 34.4053 67.7071C34.2937 67.6406 34.1592 67.6085 34.0237 67.6161H32.0337C31.8983 67.6085 31.7637 67.6406 31.6521 67.7071C31.6096 67.7376 31.5753 67.7757 31.5518 67.8188C31.5283 67.8619 31.5162 67.909 31.5162 67.9566C31.5162 68.0042 31.5283 68.0513 31.5518 68.0944C31.5753 68.1375 31.6096 68.1756 31.6521 68.2061C31.7641 68.272 31.8983 68.304 32.0337 68.2971H34.0237ZM35.3254 66.7944H34.3849V63.8184H35.3254V64.916H36.0409V65.6674H35.3254V66.7944Z" fill="#231815"/>
<path d="M42.2085 67.4812H39.7211V69.0015H38.767V67.4812H36.2795V66.7651H42.2085V67.4812ZM41.4589 66.5244C41.0852 66.3601 40.7149 66.1987 40.3481 66.0402C39.9812 65.8817 39.6132 65.7164 39.244 65.5442C38.876 65.7085 38.5063 65.87 38.1366 66.0314C37.7669 66.1928 37.3972 66.3557 37.0292 66.5244L36.4635 65.9785L37.4687 65.5266C37.8095 65.374 38.1423 65.2213 38.4671 65.0687C38.5646 65.0305 38.6457 64.9668 38.6988 64.8868C38.7396 64.8029 38.7627 64.7134 38.767 64.6226H36.8043V63.9065H41.6974V64.6226H39.7279C39.7285 64.7126 39.7505 64.8015 39.7926 64.8838C39.8478 64.9643 39.9297 65.0288 40.0278 65.0687C40.3492 65.2243 40.6797 65.3779 41.0193 65.5295L42.0314 65.9785L41.4589 66.5244Z" fill="#231815"/>
<path d="M48.4781 68.6552H42.5491V67.9391H45.0365V66.6946H45.9906V67.9332H48.4781V68.6552ZM47.7284 67.1055C47.5155 66.9764 47.3144 66.8517 47.1287 66.7328C46.943 66.6139 46.7607 66.4951 46.5835 66.3777C46.4063 66.2603 46.2308 66.1399 46.0554 66.0196C45.8799 65.8993 45.6993 65.7687 45.5136 65.6322C45.3273 65.7682 45.1467 65.8973 44.9718 66.0196C44.8014 66.1399 44.6208 66.2603 44.4436 66.3777C44.2664 66.4951 44.0841 66.6125 43.895 66.7328C43.7059 66.8531 43.5083 66.9764 43.2987 67.1055L42.7263 66.5596C43.067 66.3444 43.4078 66.1184 43.7485 65.8817C44.0893 65.6439 44.4044 65.4165 44.6822 65.1978C44.7844 65.119 44.8717 65.0269 44.9411 64.9249C45.0036 64.8207 45.0341 64.7046 45.0297 64.5874V63.9182H46.0043V64.5815C46.0001 64.6996 46.0306 64.8167 46.0928 64.922C46.1592 65.025 46.2443 65.1181 46.345 65.1978C46.6227 65.4165 46.9328 65.6381 47.2787 65.8817C47.6245 66.1253 47.9601 66.3439 48.3009 66.5596L47.7284 67.1055Z" fill="#231815"/>
<path d="M54.7479 68.6551H48.8188V67.939H54.7479V68.6551ZM54.3321 67.1172H49.2414V66.4011H50.0932V64.6929H49.364V63.9768H54.189V64.6929H53.4666V66.4011H54.3321V67.1172ZM52.5262 66.4011V64.6929H51.0405V66.4011H52.5262Z" fill="#231815"/>
<path d="M61.0176 68.6551H55.0886V67.939H61.0176V68.6551ZM60.5815 67.2698H55.6406V63.9534H60.4656V64.6695H56.5811V65.2565H60.3975V65.9609H56.5811V66.5478H60.5815V67.2698Z" fill="#231815"/>
<path d="M63.5529 68.8547H62.5988V67.4988H61.4607V66.7944H64.6978V67.4988H63.5529V68.8547ZM64.2207 66.1839C64.0841 66.3101 63.918 66.4102 63.7335 66.4774C63.3103 66.6182 62.8414 66.6182 62.4182 66.4774C62.2351 66.4135 62.0701 66.3165 61.9343 66.193C61.7986 66.0694 61.6951 65.9222 61.6311 65.7613C61.4948 65.4229 61.4948 65.0548 61.6311 64.7164C61.6951 64.5555 61.7986 64.4083 61.9343 64.2848C62.0701 64.1612 62.2351 64.0642 62.4182 64.0003C62.8414 63.8595 63.3103 63.8595 63.7335 64.0003C63.9165 64.0642 64.0815 64.1612 64.2173 64.2848C64.3531 64.4083 64.4565 64.5555 64.5206 64.7164C64.6569 65.0548 64.6569 65.4229 64.5206 65.7613C64.459 65.9172 64.3617 66.0609 64.2344 66.1839H64.2207ZM63.0758 65.8728C63.165 65.8789 63.2545 65.8661 63.3365 65.8354C63.4185 65.8046 63.4905 65.757 63.5461 65.6967C63.6442 65.5568 63.6961 65.3965 63.6961 65.233C63.6961 65.0695 63.6442 64.9092 63.5461 64.7693C63.486 64.7136 63.4132 64.6693 63.3323 64.6389C63.2514 64.6086 63.1641 64.5929 63.0758 64.5929C62.9876 64.5929 62.9003 64.6086 62.8194 64.6389C62.7385 64.6693 62.6657 64.7136 62.6056 64.7693C62.5075 64.9092 62.4556 65.0695 62.4556 65.233C62.4556 65.3965 62.5075 65.5568 62.6056 65.6967C62.6619 65.7579 62.735 65.8061 62.8182 65.8368C62.9015 65.8675 62.9924 65.8799 63.0827 65.8728H63.0758ZM65.8904 68.8547H64.984V68.4673H64.0776V67.7746H64.984V63.8771H65.8972L65.8904 68.8547ZM67.1784 69.0014H66.2516V63.8184H67.1784V69.0014Z" fill="#231815"/>
<path d="M73.1824 69.0014H72.2419V66.4011H71.3901V66.9411C71.3925 67.1331 71.3508 67.3236 71.2674 67.5017C71.189 67.6687 71.0692 67.819 70.9164 67.9419C70.7566 68.065 70.5702 68.1598 70.3678 68.2208C69.9033 68.3538 69.4012 68.3538 68.9367 68.2208C68.734 68.1589 68.5476 68.0631 68.3881 67.939C68.2353 67.816 68.1155 67.6658 68.0371 67.4988C67.9537 67.3207 67.912 67.1302 67.9144 66.9382V65.2741C67.9118 65.0821 67.9535 64.8915 68.0371 64.7135C68.115 64.5463 68.2349 64.396 68.3881 64.2733C68.5467 64.1481 68.7334 64.0522 68.9367 63.9915C69.4012 63.8585 69.9033 63.8585 70.3678 63.9915C70.5711 64.0522 70.7578 64.1481 70.9164 64.2733C71.0696 64.396 71.1894 64.5463 71.2674 64.7135C71.351 64.8915 71.3927 65.0821 71.3901 65.2741V65.6263H72.2419V63.8184H73.1824V69.0014ZM68.8549 66.8531C68.8417 67.0515 68.9119 67.2473 69.0525 67.4048C69.2163 67.5315 69.4287 67.6015 69.6488 67.6015C69.869 67.6015 70.0813 67.5315 70.2451 67.4048C70.3858 67.2473 70.4559 67.0515 70.4428 66.8531V65.3621C70.4562 65.1637 70.3861 64.9678 70.2451 64.8104C70.0813 64.6837 69.869 64.6137 69.6488 64.6137C69.4287 64.6137 69.2163 64.6837 69.0525 64.8104C68.9116 64.9678 68.8414 65.1637 68.8549 65.3621V66.8531Z" fill="#231815"/>
<path d="M77.353 68.121H74.0886V64.0414H77.353V68.121ZM76.4125 67.4048V64.7634H75.0359V67.4048H76.4125ZM79.1181 69.0014H78.1708V63.8184H79.1112V65.5969H79.929V66.3717H79.1112L79.1181 69.0014Z" fill="#231815"/>
<path d="M83.9977 66.9411C83.9999 67.1334 83.957 67.324 83.8716 67.5017C83.7914 67.6693 83.6692 67.8196 83.5138 67.9419C83.3508 68.0665 83.1609 68.1622 82.955 68.2237C82.4812 68.3567 81.9705 68.3567 81.4966 68.2237C81.2907 68.1622 81.1008 68.0665 80.9378 67.9419C80.7824 67.8196 80.6603 67.6693 80.58 67.5017C80.4946 67.324 80.4518 67.1334 80.4539 66.9411V65.2741C80.4516 65.0818 80.4945 64.8911 80.58 64.7135C80.6598 64.5457 80.7821 64.3953 80.9378 64.2733C81.1 64.1477 81.2901 64.0518 81.4966 63.9915C81.9705 63.8585 82.4812 63.8585 82.955 63.9915C83.1616 64.0518 83.3517 64.1477 83.5138 64.2733C83.6696 64.3953 83.7918 64.5457 83.8716 64.7135C83.9571 64.8911 84 65.0818 83.9977 65.2741V66.9411ZM81.3944 66.8531C81.3805 67.0535 81.4561 67.2509 81.6057 67.4048C81.7777 67.5336 81.9979 67.6045 82.2258 67.6045C82.4537 67.6045 82.6739 67.5336 82.846 67.4048C82.9956 67.2509 83.0712 67.0535 83.0572 66.8531V65.3621C83.0713 65.1617 82.9957 64.9643 82.846 64.8104C82.6739 64.6816 82.4537 64.6107 82.2258 64.6107C81.9979 64.6107 81.7777 64.6816 81.6057 64.8104C81.4559 64.9643 81.3803 65.1617 81.3944 65.3621V66.8531ZM85.7219 69.0014H84.7814V63.8184H85.7219V69.0014Z" fill="#231815"/>
<path d="M92.3665 68.6552H86.4375V67.9391H92.3665V68.6552ZM91.6169 67.1642C91.4039 67.0351 91.2029 66.9104 91.0172 66.7915C90.8314 66.6726 90.6423 66.5479 90.472 66.4364C90.3016 66.3248 90.1193 66.1986 89.9438 66.0783C89.7683 65.958 89.5877 65.8274 89.402 65.6909C89.2169 65.8269 89.0363 65.956 88.8602 66.0783C88.6898 66.1986 88.5092 66.319 88.3321 66.4364C88.1549 66.5538 87.9726 66.6712 87.7834 66.7915C87.5943 66.9118 87.3967 67.0351 87.1871 67.1642L86.6147 66.5949C86.9554 66.3796 87.2962 66.1566 87.6369 65.9257C87.9777 65.6938 88.2929 65.4693 88.5706 65.2507C88.6728 65.1718 88.7601 65.0797 88.8295 64.9777C88.892 64.8736 88.9225 64.7574 88.9181 64.6402V63.9182H89.8859V64.6402C89.8817 64.7583 89.9122 64.8754 89.9745 64.9807C90.0428 65.0841 90.1303 65.1773 90.2334 65.2565C90.5111 65.4752 90.8212 65.6968 91.1671 65.9316C91.5129 66.1664 91.8486 66.385 92.1893 66.6007L91.6169 67.1642Z" fill="#231815"/>
<path d="M96.7349 68.1797H93.0276V64.0062H96.3056V64.7223H93.9749V65.6908H95.9512V66.4011H93.9749V67.4694H96.7349V68.1797ZM98.2683 69.0014H97.321V66.4011H96.2647V65.6263H97.3278V63.8184H98.2683V69.0014Z" fill="#231815"/>
<path d="M104.906 68.6553H98.9771V67.9391H101.001V66.1254H101.955V67.9391H104.906V68.6553ZM104.32 67.1878H103.38V64.7225H99.5018V64.0063H104.327L104.32 67.1878Z" fill="#231815"/>
<path d="M109.956 68.121H107.209V64.0414H109.786V64.7575H108.136V67.399H109.956V68.121ZM112.743 69.0014H111.816V66.4187H111.258V68.8547H110.338V63.8771H111.258V65.638H111.823V63.8184H112.75L112.743 69.0014Z" fill="#00913A"/>
<path d="M117.112 68.0916H113.411V63.9827H114.352V67.3755H117.112V68.0916ZM118.434 69.0014H117.493V63.8184H118.434V65.5969H119.252V66.3717H118.434V69.0014Z" fill="#00913A"/>
<path d="M125.419 67.4812H122.932V69.0015H121.977V67.4812H119.49V66.7651H125.419V67.4812ZM124.833 66.2544H120.076V63.9065H124.833V66.2544ZM123.892 65.5383V64.6167H121.017V65.5383H123.892Z" fill="#00913A"/>
<path d="M131.253 68.9545H126.196V68.2619H127.068V67.6749H126.298V66.9882H128.247V66.5949H125.76V65.9022H131.689V66.5949H129.201V66.9882H131.15V67.6808H130.38V68.2678H131.253V68.9545ZM131.062 65.7261C130.74 65.6322 130.416 65.528 130.094 65.415C129.772 65.302 129.452 65.1861 129.133 65.0687C129.06 65.0419 128.988 65.0116 128.918 64.9777C128.852 64.944 128.787 64.9073 128.724 64.8691C128.595 64.9497 128.456 65.0167 128.309 65.0687L127.351 65.4209C127.031 65.5383 126.709 65.6469 126.387 65.7496L125.985 65.1626C126.293 65.057 126.625 64.9366 126.98 64.8046C127.334 64.6725 127.661 64.5419 127.968 64.4172C128.052 64.3855 128.125 64.3348 128.179 64.2704C128.229 64.1966 128.252 64.112 128.247 64.0268V63.7744H129.201V64.0268C129.196 64.112 129.22 64.1966 129.269 64.2704C129.323 64.3348 129.396 64.3855 129.481 64.4172C129.786 64.5419 130.113 64.6681 130.465 64.7958C130.818 64.9234 131.147 65.0364 131.464 65.1392L131.062 65.7261ZM129.44 68.256V67.6691H128.009V68.256H129.44Z" fill="#00913A"/>
</g>
<defs>
<linearGradient id="paint0_linear" x1="53.1345" y1="44.9572" x2="62.2904" y2="44.9572" gradientUnits="userSpaceOnUse">
<stop offset="0.71" stop-color="#76B157"/>
<stop offset="1" stop-color="#025F33"/>
</linearGradient>
<linearGradient id="paint1_linear" x1="52.9607" y1="23.6055" x2="62.4658" y2="23.6055" gradientUnits="userSpaceOnUse">
<stop offset="0.71" stop-color="#76B157"/>
<stop offset="1" stop-color="#025F33"/>
</linearGradient>
<linearGradient id="paint2_linear" x1="83.6228" y1="44.7517" x2="92.2028" y2="44.7517" gradientUnits="userSpaceOnUse">
<stop offset="0.69" stop-color="#76B157"/>
<stop offset="1" stop-color="#025F33"/>
</linearGradient>
<linearGradient id="paint3_linear" x1="83.4592" y1="24.3744" x2="92.3664" y2="24.3744" gradientUnits="userSpaceOnUse">
<stop offset="0.65" stop-color="#76B157"/>
<stop offset="1" stop-color="#025F33"/>
</linearGradient>
<linearGradient id="paint4_linear" x1="7023.53" y1="6543.62" x2="7455.45" y2="6543.62" gradientUnits="userSpaceOnUse">
<stop offset="0.71" stop-color="#76B157"/>
<stop offset="1" stop-color="#025F33"/>
</linearGradient>
<linearGradient id="paint5_linear" x1="7281.6" y1="4383.97" x2="7747.26" y2="4383.97" gradientUnits="userSpaceOnUse">
<stop offset="0.71" stop-color="#76B157"/>
<stop offset="1" stop-color="#025F33"/>
</linearGradient>
<linearGradient id="paint6_linear" x1="143.637" y1="5.82142" x2="157.531" y2="5.82142" gradientUnits="userSpaceOnUse">
<stop offset="0.59" stop-color="#76B157"/>
<stop offset="0.65" stop-color="#6FAC55"/>
<stop offset="0.74" stop-color="#5A9D4E"/>
<stop offset="0.85" stop-color="#398644"/>
<stop offset="0.98" stop-color="#0A6536"/>
<stop offset="1" stop-color="#025F33"/>
</linearGradient>
<linearGradient id="paint7_linear" x1="13653.1" y1="804.725" x2="14586.7" y2="804.725" gradientUnits="userSpaceOnUse">
<stop offset="0.59" stop-color="#76B157"/>
<stop offset="0.65" stop-color="#6FAC55"/>
<stop offset="0.74" stop-color="#5A9D4E"/>
<stop offset="0.85" stop-color="#398644"/>
<stop offset="0.98" stop-color="#0A6536"/>
<stop offset="1" stop-color="#025F33"/>
</linearGradient>
<clipPath id="clip0">
<rect width="163" height="69" fill="white"/>
</clipPath>
</defs>
</svg>
