<svg width="15" height="15" viewBox="0 0 15 15" fill="none" xmlns="http://www.w3.org/2000/svg">
<path d="M13.8348 9.01221H12.2812C11.8852 9.01221 11.616 8.71692 11.616 8.41465V1.09757C11.616 0.7953 11.8852 0.500011 12.2812 0.500011H13.8348C14.2308 0.500011 14.5 0.7953 14.5 1.09757L14.5 8.41465C14.5 8.71692 14.2308 9.01221 13.8348 9.01221Z" fill="#C4C4C4" stroke="#C4C4C4"/>
<path d="M6.75633 9.39706L6.83411 8.8292H6.26095H1.94393C0.881066 8.8292 0.248794 7.84549 0.601037 7.01598C0.601038 7.01598 0.601038 7.01598 0.601039 7.01597L2.93145 1.52819C3.14274 1.03063 3.66715 0.682861 4.27435 0.682861H8.20297C9.02795 0.682861 9.64498 1.30575 9.64498 2.01213V9.19426L6.63525 14.364C6.59178 14.4386 6.4973 14.4999 6.37814 14.4999C6.17259 14.4999 6.07898 14.3419 6.09395 14.2326L5.59857 14.1648L6.09395 14.2326L6.75633 9.39706Z" fill="white" stroke="#C4C4C4"/>
</svg>
