<svg width="25" height="27" viewBox="0 0 25 27" fill="none" xmlns="http://www.w3.org/2000/svg">
<path d="M1.76234 11.5683L12.038 1.68043C12.4306 1.30258 13.0536 1.30869 13.4387 1.69416L23.2944 11.5573C23.924 12.1874 23.4778 13.2642 22.5871 13.2642H21.0784C21.3492 13.2642 21.5686 13.4836 21.5686 13.7543V25C21.5686 25.5523 21.1209 26 20.5686 26H17.1765C16.6242 26 16.1765 25.5523 16.1765 25V18.9811C16.1765 18.4288 15.7288 17.9811 15.1765 17.9811H10.3137C9.76144 17.9811 9.31372 18.4288 9.31372 18.9811V25C9.31372 25.5523 8.86601 26 8.31372 26H4.43137C3.87909 26 3.43137 25.5523 3.43137 25V14.2498C3.43137 13.7054 2.99009 13.2642 2.44575 13.2642C1.55849 13.2642 1.123 12.1835 1.76234 11.5683Z" stroke="#C4C4C4" stroke-width="1.5"/>
</svg>
