<svg width="140" height="112" viewBox="0 0 140 112" fill="none" xmlns="http://www.w3.org/2000/svg">
<g clip-path="url(#clip0)">
<path d="M23.4954 111.971C23.4954 111.971 21.4784 107.008 27.5291 103.285L23.4954 111.971Z" fill="#F0F0F0"/>
<path d="M21.0148 111.881C21.0148 111.881 20.3996 108.343 15.6375 108.373L21.0148 111.881Z" fill="#F0F0F0"/>
<path d="M91.028 111.971C91.028 111.971 89.011 107.008 95.0618 103.285L91.028 111.971Z" fill="#F0F0F0"/>
<path d="M88.5475 111.881C88.5475 111.881 87.9323 108.343 83.1702 108.373L88.5475 111.881Z" fill="#F0F0F0"/>
<path d="M89.3668 79.8329C99.0495 79.8329 106.899 71.9853 106.899 62.3047C106.899 52.6241 99.0495 44.7765 89.3668 44.7765C79.6841 44.7765 71.8347 52.6241 71.8347 62.3047C71.8347 71.9853 79.6841 79.8329 89.3668 79.8329Z" fill="#F0F0F0"/>
<path d="M89.4149 62.3046H89.4631L90.3301 112H88.4998L89.4149 62.3046Z" fill="#F0F0F0"/>
<path d="M127.008 88.5382C134.07 88.5382 139.795 82.8143 139.795 75.7536C139.795 68.6929 134.07 62.969 127.008 62.969C119.946 62.969 114.221 68.6929 114.221 75.7536C114.221 82.8143 119.946 88.5382 127.008 88.5382Z" fill="#F0F0F0"/>
<path d="M127.043 75.7535H127.078L127.711 112H126.376L127.043 75.7535Z" fill="#F0F0F0"/>
<path d="M56.1973 75.8835C56.4422 75.8554 56.678 75.7739 56.8881 75.6448C57.0981 75.5157 57.2773 75.3422 57.413 75.1364C57.5487 74.9306 57.6376 74.6975 57.6735 74.4536C57.7094 74.2097 57.6913 73.961 57.6206 73.7248L62.4815 70.2197L59.57 69.1141L55.4003 72.6122C55.0114 72.7572 54.6892 73.0399 54.4948 73.4066C54.3004 73.7733 54.2472 74.1985 54.3455 74.6017C54.4437 75.005 54.6865 75.3582 55.0278 75.5944C55.3691 75.8306 55.7852 75.9335 56.1973 75.8835H56.1973Z" fill="#FFB6B6"/>
<path d="M52.6337 110.266L51.0903 110.266L50.356 104.314H52.634L52.6337 110.266Z" fill="#FFB6B6"/>
<path d="M53.0274 111.762L48.0506 111.762V111.699C48.0506 111.185 48.2547 110.693 48.618 110.33C48.9812 109.967 49.4739 109.762 49.9877 109.762H49.9878L53.0275 109.763L53.0274 111.762Z" fill="#2F2E41"/>
<path d="M40.8443 110.266L39.3008 110.266L38.5667 104.314H40.8446L40.8443 110.266Z" fill="#FFB6B6"/>
<path d="M41.238 111.762L36.2612 111.762V111.699C36.2613 111.185 36.4654 110.693 36.8286 110.33C37.1919 109.967 37.6846 109.762 38.1983 109.762H38.1985L41.2381 109.763L41.238 111.762Z" fill="#2F2E41"/>
<path d="M42.0365 77.1682L38.7655 95.0524L37.6214 109.258L41.3359 109.075L43.4503 95.2805L48.7058 83.2696L50.27 109.042L53.6893 109.053L55.5291 76.4529L42.0365 77.1682Z" fill="#2F2E41"/>
<path d="M55.9478 56.6981L51.363 54.8743L46.1033 55.4759L41.6445 57.9403C41.6445 57.9403 43.0084 75.0423 41.0314 79.0539C41.0314 79.0539 42.6154 81.2476 49.0699 80.712C49.0699 80.712 55.3571 79.9176 55.5129 77.8564C55.6688 75.7951 55.7017 72.0474 55.7017 72.0474L57.884 64.5287L55.9478 56.6981Z" fill="#57CC4D"/>
<path d="M43.4367 58.2695L41.6445 57.9403C41.6445 57.9403 39.7376 58.7763 39.7572 61.2673C39.7767 63.7583 36.3882 72.1098 40.4422 72.4599C44.4962 72.81 43.4367 66.5376 43.4367 66.5376V58.2695Z" fill="#57CC4D"/>
<path d="M54.4937 57.7593L55.9479 56.6981C55.9479 56.6981 58.168 57.1995 58.9892 58.9864C58.9892 58.9864 68.0936 65.5879 65.5894 68.0916C63.0852 70.5952 57.9804 73.6767 57.9804 73.6767L56.0904 71.5371L60.7795 67.29L56.9327 63.7864L54.4937 57.7593Z" fill="#57CC4D"/>
<path d="M52.1687 50.1326C52.1681 51.1302 51.7712 52.0868 51.0654 52.792C50.3596 53.4972 49.4025 53.8933 48.4047 53.8933C47.4068 53.8933 46.4498 53.4972 45.744 52.792C45.0382 52.0868 44.6413 51.1302 44.6407 50.1326V49.9881C44.6793 49.0039 45.1023 48.0739 45.819 47.398C46.5357 46.7221 47.489 46.3541 48.4741 46.373C49.4591 46.3919 50.3975 46.7962 51.0878 47.4992C51.778 48.2021 52.1651 49.1475 52.1658 50.1326H52.1687Z" fill="#FFB6B6"/>
<path d="M48.9768 49.526C49.2176 49.4866 49.4786 49.449 49.6943 49.5597C50.1634 49.7995 50.0555 50.4794 50.3117 50.9281C50.4128 51.1062 50.5766 51.2516 50.644 51.4442C50.7114 51.6368 50.67 51.8775 50.7759 52.0634C50.9291 52.3321 51.3442 52.3715 51.6168 52.2117C51.8746 52.0331 52.0614 51.7697 52.1446 51.4673C52.2351 51.2112 52.3112 50.9281 52.5299 50.7605C52.6093 50.7153 52.6806 50.657 52.7408 50.5882C52.786 50.497 52.8034 50.3945 52.7909 50.2935C52.7909 49.6426 52.6897 49.138 52.8371 48.5072C53.0731 47.4904 53.2888 46.9877 52.5414 46.2337C52.1588 45.8525 51.6664 45.6006 51.1333 45.5134C50.6517 45.4345 49.9428 46.1066 49.4555 46.0912C48.2159 46.0421 47.1699 44.8943 45.9881 45.265C45.4714 45.4273 45.0234 45.7569 44.7148 46.202C44.1369 47.0532 44.1889 47.3825 44.2727 48.3984C44.2715 48.4756 44.294 48.5512 44.3372 48.6151C44.3806 48.6671 44.4509 48.695 44.4933 48.748C44.5389 48.818 44.5561 48.9027 44.5414 48.9849C44.5285 49.1504 44.4899 49.3128 44.4268 49.4663C44.4109 49.492 44.4011 49.521 44.3981 49.551C44.3951 49.581 44.399 49.6114 44.4095 49.6397C44.4332 49.6718 44.4672 49.6949 44.5058 49.7052C44.9874 49.8785 45.5075 49.5444 46.0228 49.553C46.538 49.5617 47.0273 49.9064 47.559 49.8313C48.0281 49.7591 48.5039 49.604 48.9768 49.526Z" fill="#2F2E41"/>
<path d="M48.9519 70.447C48.9198 70.4593 48.8864 70.4679 48.8524 70.4727L44.6728 71.056C44.5717 71.0704 44.4686 71.0501 44.3806 70.9982C44.2926 70.9464 44.2249 70.8661 44.1886 70.7707L40.5909 61.4113C40.5676 61.3507 40.5577 61.2858 40.5617 61.221C40.5658 61.1562 40.5838 61.0931 40.6145 61.0359C40.6451 60.9786 40.6878 60.9287 40.7395 60.8895C40.7913 60.8502 40.8508 60.8226 40.9142 60.8085H40.9142L44.8447 59.9316C44.8751 59.9247 44.9044 59.914 44.932 59.8996L48.7549 57.9013C48.7845 57.8858 48.8156 57.8737 48.8479 57.8652L53.0551 56.7438C53.1628 56.7149 53.2775 56.7269 53.3768 56.7776C53.4762 56.8283 53.5533 56.914 53.5931 57.0182L56.7301 65.179C56.7576 65.2501 56.7666 65.327 56.7562 65.4025C56.7459 65.4781 56.7164 65.5497 56.6707 65.6107L55.5858 67.0673C55.5348 67.1358 55.4654 67.1885 55.3856 67.2191L53.0146 68.13C52.9976 68.1366 52.9812 68.1444 52.9654 68.1535L49.0146 70.4172C48.9945 70.4288 48.9735 70.4387 48.9519 70.447Z" fill="white"/>
<path d="M50.8965 57.9915L50.3622 58.1339L48.9464 58.5114L48.9439 58.512L47.0056 59.5253L46.2862 59.9014L46.2859 59.9015L45.2055 60.4662L45.1759 60.4729L44.0536 60.7231L43.5112 60.8444L41.2989 61.3379L44.7719 70.3731L47.0517 70.0551L47.6107 69.9769L48.8021 69.8104L48.8159 69.8087L52.6444 67.6149L54.9738 66.7199L56.0373 65.2921L53.0141 57.4271L50.8965 57.9915Z" fill="#E4E4E4"/>
<path d="M53.5122 58.7229L41.9948 63.1482L42.192 63.6613L53.7094 59.236L53.5122 58.7229Z" fill="white"/>
<path d="M54.1696 60.4332L42.6522 64.8585L42.8494 65.3716L54.3669 60.9463L54.1696 60.4332Z" fill="white"/>
<path d="M55.4976 63.8882L43.9801 68.3135L44.1774 68.8266L55.6948 64.4013L55.4976 63.8882Z" fill="white"/>
<path d="M50.8964 57.9915L54.3446 66.9617L53.8313 67.1589L50.3622 58.1339L50.8964 57.9915Z" fill="white"/>
<path d="M47.0056 59.5253L46.2975 61.495L46.0521 62.1781L45.4794 63.7723L45.3566 64.113L45.2338 64.4555L45.0721 64.905L43.9114 68.1347L43.6096 67.3496L44.5561 64.7159L44.7702 64.1196L44.8015 64.0327L45.0547 63.3276L45.3742 62.4387L45.6198 61.7553L46.2858 59.9016L46.2861 59.9014L47.0056 59.5253Z" fill="white"/>
<path d="M44.0536 60.723L47.6105 69.9769L47.0516 70.055L43.5111 60.8443L44.0536 60.723Z" fill="white"/>
<path d="M43.2922 69.5841C44.1965 69.5841 44.9296 68.8512 44.9296 67.9471C44.9296 67.043 44.1965 66.3101 43.2922 66.3101C42.3879 66.3101 41.6548 67.043 41.6548 67.9471C41.6548 68.8512 42.3879 69.5841 43.2922 69.5841Z" fill="#FFB6B6"/>
<path d="M110.903 58.181C126.973 58.181 140 45.1567 140 29.0905C140 13.0243 126.973 0 110.903 0C94.8333 0 81.8062 13.0243 81.8062 29.0905C81.8062 45.1567 94.8333 58.181 110.903 58.181Z" fill="#E4E4E4"/>
<path opacity="0.1" d="M132.387 9.6604C135.101 16.0077 135.47 23.1131 133.426 29.7069C131.383 36.3007 127.06 41.9531 121.232 45.6542C115.404 49.3553 108.449 50.8638 101.611 49.9103C94.7725 48.9567 88.4961 45.6032 83.9032 40.4489C85.5612 44.3269 88.0426 47.7981 91.1757 50.6221C94.3087 53.446 98.0183 55.5552 102.048 56.8035C106.077 58.0518 110.329 58.4094 114.511 57.8514C118.692 57.2934 122.702 55.8333 126.263 53.5721C129.823 51.311 132.85 48.3029 135.132 44.7562C137.415 41.2096 138.899 37.2092 139.481 33.0322C140.064 28.8553 139.731 24.6016 138.506 20.566C137.281 16.5304 135.193 12.8092 132.387 9.6604Z" fill="black"/>
<path d="M110.823 29.0905H110.743L109.304 111.567H112.342L110.823 29.0905Z" fill="#E4E4E4"/>
<path d="M132.06 111.919H0.158156C0.116211 111.919 0.0759828 111.902 0.0463228 111.872C0.0166627 111.843 0 111.802 0 111.76C0 111.718 0.0166627 111.678 0.0463228 111.649C0.0759828 111.619 0.116211 111.602 0.158156 111.602H132.06C132.102 111.602 132.143 111.619 132.172 111.649C132.202 111.678 132.219 111.718 132.219 111.76C132.219 111.802 132.202 111.843 132.172 111.872C132.143 111.902 132.102 111.919 132.06 111.919Z" fill="#CACACA"/>
</g>
<defs>
<clipPath id="clip0">
<rect width="140" height="112" fill="white"/>
</clipPath>
</defs>
</svg>
