<svg width="15" height="15" viewBox="0 0 15 15" fill="none" xmlns="http://www.w3.org/2000/svg">
<path d="M1.16521 5.98779H2.71882C3.11479 5.98779 3.38402 6.28308 3.38402 6.58535V13.9024C3.38402 14.2047 3.11479 14.5 2.71882 14.5H1.16521C0.769229 14.5 0.5 14.2047 0.5 13.9024V6.58535C0.5 6.28308 0.769229 5.98779 1.16521 5.98779Z" fill="#4D70CC" stroke="#4D70CC"/>
<path d="M8.36471 0.635964L8.36471 0.635956C8.40818 0.561297 8.50265 0.5 8.62182 0.5C8.82738 0.5 8.92098 0.658061 8.90601 0.767298L8.90601 0.767303L8.24363 5.60288L8.16585 6.17073H8.73901H13.056C14.1189 6.17073 14.7512 7.15443 14.3989 7.98396C14.3989 7.98396 14.3989 7.98396 14.3989 7.98396L12.0685 13.4718C11.8572 13.9693 11.3328 14.3171 10.7256 14.3171H6.79699C5.97201 14.3171 5.35498 13.6942 5.35498 12.9878V5.80568L8.36471 0.635964Z" fill="white" stroke="#4D70CC"/>
</svg>
